<?xml version="1.0" encoding="utf-8"?>

<svg id="StreamlineIcons" version="1.1" xmlns="http://www.w3.org/2000/svg" xmlns:xlink="http://www.w3.org/1999/xlink" x="0px" y="0px" viewBox="0 0 16 16">

<!--
	ICONS: 16px
-->

<symbol id="icon-16_options" viewBox="0 0 24 24">
	<path class="stroked" d="M2 7c.6 0 1 .4 1 1s-.4 1-1 1-1-.4-1-1 .4-1 1-1m0-1C.9 6 0 6.9 0 8s.9 2 2 2 2-.9 2-2-.9-2-2-2zM8 7c.6 0 1 .4 1 1s-.4 1-1 1-1-.4-1-1 .4-1 1-1m0-1c-1.1 0-2 .9-2 2s.9 2 2 2 2-.9 2-2-.9-2-2-2zM14 7c.6 0 1 .4 1 1s-.4 1-1 1-1-.4-1-1 .4-1 1-1m0-1c-1.1 0-2 .9-2 2s.9 2 2 2 2-.9 2-2-.9-2-2-2z"/>
</symbol>


<!--
	ICONS: 24px
-->

<symbol id="icon-24_document" viewBox="0 0 24 24">
	<path class="stroked" d="M19.5 22.5h-14a2 2 0 0 1-2-2v-18c0-1.1.9-2 2-2h14a2 2 0 0 1 2 2v18a2 2 0 0 1-2 2zM7.5 5.5h9M7.5 9.5h9M7.5 13.5h9M7.5 17.5h7"/>
</symbol>

<symbol id="icon-24_file" viewBox="0 0 24 24">
	<path class="stroked" d="M13.5 22.5v-5c0-1.1.9-2 2-2h5v1l-6 6h-10a2 2 0 0 1-2-2v-18c0-1.1.9-2 2-2h14a2 2 0 0 1 2 2v13"/>
</symbol>

<symbol id="icon-24_files" viewBox="0 0 24 24">
	<g class="stroked">
		<path d="M8.5 22.5v-5c0-1.1.9-2 2-2h5v1l-6 6h-7a2 2 0 0 1-2-2v-18c0-1.1.9-2 2-2h11a2 2 0 0 1 2 2v13"/>
		<path d="M13 22.5h4.5a2 2 0 0 0 2-2v-18a2 2 0 0 0-2-2H17M21 22.5h.5a2 2 0 0 0 2-2v-18a2 2 0 0 0-2-2H21"/>
	</g>
</symbol>

<symbol id="icon-24_folder-closed" viewBox="0 0 24 24">
	<path class="filled" d="M20.5 5H16c-.8 0-1-.2-1.4-.7l-2.2-2.2C11.6 1.4 11 1 10 1H2.5A2.5 2.5 0 0 0 0 3.5v15C0 19.9 1.1 21 2.5 21h18c1.4 0 2.5-1.1 2.5-2.5v-11C23 6.1 21.9 5 20.5 5zM22 18.5c0 .8-.7 1.5-1.5 1.5h-18c-.8 0-1.5-.7-1.5-1.5V6h9V5H1V3.5C1 2.7 1.7 2 2.5 2H10c.6 0 1 .2 1.6.9L13.8 5c.6.6 1 1 2.2 1h4.5c.8 0 1.5.7 1.5 1.5v11z"/>
</symbol>

<symbol id="icon-24_group" viewBox="0 0 24 24">
	<g class="stroked">
		<path d="M.5 2.5c0-1.1.9-2 2-2h10a2 2 0 0 1 2 2v11a2 2 0 0 1-2 2h-10a2 2 0 0 1-2-2v-11z"/>
		<path d="M16.5 4.5a2 2 0 0 1 2 2v11a2 2 0 0 1-2 2h-10a2 2 0 0 1-2-2"/>
		<path d="M20.5 8.5a2 2 0 0 1 2 2v11a2 2 0 0 1-2 2h-10a2 2 0 0 1-2-2"/>
	</g>
</symbol>

<symbol id="icon-24_home" viewBox="0 0 24 24">
	<g class="stroked">
		<path d="M1,12l9.6-9.4c0.8-0.8,2.1-0.8,2.8,0L23,12"/>
		<path d="M19.5,14.5v6c0,1.1-0.9,2-2,2h-11c-1.1,0-2-0.9-2-2v-6"/>
	</g>
</symbol>

<symbol id="icon-24_trash" viewBox="0 0 24 24">
	<path class="stroked" d="M4.5 8.5v13c0 1.1.9 2 2 2h11a2 2 0 0 0 2-2v-13M2.5 3.5h19v3h-19zM6.5 3.5l.7-1c.8-1 1.2-2 2.3-2h5c1.1 0 1.7 1 2.3 2l.7 1"/>
</symbol>

<symbol id="icon-24_user" viewBox="0 0 24 24">
	<path class="filled" d="M19.4 23H3.6c-2 0-3.6-1.5-3.6-3.5 0-1.8 2-2.8 3.3-3.4l3.4-1.7A10 10 0 0 1 5 8.5C5 4.4 6.7 0 11.5 0S18 4.4 18 8.5c0 1.7-.3 4-1.7 5.8l3.4 1.7c.8.4 3.3 1.7 3.3 3.4 0 2.1-1.6 3.6-3.6 3.6zM11.5 1C6.3 1 6 7.2 6 8.5c0 1.7.3 4 1.9 5.7l.1.4c0 .2-.1.3-.3.4l-4 2c-1.4.6-2.7 1.4-2.7 2.5C1 20.9 2.1 22 3.6 22h15.7c1.5 0 2.6-1.1 2.6-2.5 0-.7-1.1-1.8-2.7-2.5l-4-2-.3-.4.1-.4c1.5-1.6 1.9-4 1.9-5.7.1-1.8-.3-7.5-5.4-7.5z"/>
</symbol>

</svg>